<svg width="15" height="15" viewBox="0 0 15 15" fill="none" xmlns="http://www.w3.org/2000/svg">
<g clip-path="url(#clip0_1_5332)">
<path d="M7.57403 1.352C7.15403 1.352 6.76437 1.457 6.40503 1.667C6.0457 1.877 5.76103 2.16167 5.55103 2.521C5.34103 2.88034 5.23603 3.27 5.23603 3.69H4.04603C4.04603 3.05534 4.20237 2.46967 4.51503 1.933C4.8277 1.39634 5.25237 0.971668 5.78903 0.659002C6.3257 0.346335 6.91137 0.190002 7.54603 0.190002C8.1807 0.190002 8.76637 0.346335 9.30303 0.659002C9.8397 0.971668 10.2644 1.39634 10.577 1.933C10.8897 2.46967 11.046 3.05534 11.046 3.69H13.342C13.678 3.69 13.9627 3.809 14.196 4.047C14.4294 4.285 14.546 4.57667 14.546 4.922C14.546 4.99667 14.5414 5.06667 14.532 5.132L13.23 12.664C13.1554 13.1027 12.95 13.4667 12.614 13.756C12.278 14.0453 11.8907 14.19 11.452 14.19H3.64003C3.20137 14.19 2.81403 14.0453 2.47803 13.756C2.14203 13.4667 1.9367 13.1027 1.86203 12.664L0.560034 5.146C0.504034 4.81 0.571701 4.502 0.763035 4.222C0.954368 3.942 1.21337 3.76934 1.54003 3.704C1.60537 3.69467 1.67537 3.69 1.75003 3.69H9.91203C9.91203 3.27 9.80704 2.88034 9.59704 2.521C9.38704 2.16167 9.10237 1.877 8.74304 1.667C8.3837 1.457 7.99403 1.352 7.57403 1.352ZM13.342 4.852H1.75003C1.7407 4.852 1.7267 4.87067 1.70803 4.908V4.936L3.01003 12.468C3.03803 12.6173 3.10337 12.7433 3.20603 12.846C3.3087 12.9487 3.43003 13.0047 3.57003 13.014L3.64003 13.028H11.452C11.592 13.028 11.7204 12.9837 11.837 12.895C11.9537 12.8063 12.0307 12.6873 12.068 12.538L13.384 4.922C13.384 4.88467 13.3747 4.866 13.356 4.866L13.342 4.852Z" fill="white"/>
</g>
<defs>
<clipPath id="clip0_1_5332">
<rect width="14" height="14" fill="white" transform="matrix(1 0 0 -1 0.419922 14.19)"/>
</clipPath>
</defs>
</svg>
