<svg width="19" height="16" viewBox="0 0 19 16" fill="none" xmlns="http://www.w3.org/2000/svg">
<path d="M16.94 0.949951H0.7C0.5 0.976618 0.333333 1.06995 0.2 1.22995C0.0666667 1.38995 0 1.56995 0 1.76995C0 1.96995 0.0666667 2.15329 0.2 2.31995C0.333333 2.48662 0.5 2.58328 0.7 2.60995H3.92L3.34 9.98995V10.13C3.34 10.5833 3.50333 10.9733 3.83 11.3C4.15667 11.6266 4.54667 11.79 5 11.79H15.22C15.62 11.79 15.97 11.6666 16.27 11.42C16.57 11.1733 16.76 10.87 16.84 10.51L18.56 2.98995C18.5867 2.82995 18.6 2.70329 18.6 2.60995C18.6 2.14328 18.44 1.74995 18.12 1.42995C17.8 1.10995 17.4067 0.949951 16.94 0.949951ZM15.22 10.11H5L5.58 2.60995H16.94L15.22 10.11ZM6.54 15.95C7.00667 15.95 7.40333 15.7866 7.73 15.46C8.05667 15.1333 8.22 14.7366 8.22 14.27C8.22 13.8033 8.05667 13.41 7.73 13.09C7.40333 12.77 7.00667 12.61 6.54 12.61C6.08667 12.61 5.69667 12.77 5.37 13.09C5.04333 13.41 4.88 13.8033 4.88 14.27C4.88 14.7366 5.04333 15.1333 5.37 15.46C5.69667 15.7866 6.08667 15.95 6.54 15.95ZM14.04 15.95C14.5067 15.95 14.9033 15.7866 15.23 15.46C15.5567 15.1333 15.72 14.7366 15.72 14.27C15.72 13.8033 15.5567 13.41 15.23 13.09C14.9033 12.77 14.5067 12.61 14.04 12.61C13.5867 12.61 13.1967 12.77 12.87 13.09C12.5433 13.41 12.38 13.8033 12.38 14.27C12.38 14.7366 12.5433 15.1333 12.87 15.46C13.1967 15.7866 13.5867 15.95 14.04 15.95Z" fill="white"/>
</svg>
