<svg width="18" height="19" viewBox="0 0 18 19" fill="none" xmlns="http://www.w3.org/2000/svg">
<path d="M0.789011 8.82236C0.978958 8.82236 1.14699 8.75813 1.2931 8.62969C1.43921 8.50124 1.51227 8.33561 1.51227 8.1328V7.30127C1.51227 6.801 1.64743 6.34467 1.91774 5.93228C2.18804 5.5199 2.54967 5.19202 3.00263 4.94864C3.45558 4.70527 3.93775 4.58358 4.44915 4.58358H15.583L13.1283 6.87536C12.9822 6.99705 12.9091 7.14916 12.9091 7.33169C12.9091 7.51422 12.9822 7.67309 13.1283 7.8083C13.2452 7.91646 13.3913 7.97055 13.5666 7.97055C13.6543 7.97055 13.7419 7.95365 13.8296 7.91984C13.9173 7.88604 13.983 7.84886 14.0269 7.8083L17.687 4.42133C17.7162 4.39429 17.7454 4.36049 17.7747 4.31993C17.8039 4.27936 17.8331 4.25908 17.8623 4.25908C17.95 4.08331 17.95 3.9143 17.8623 3.75205C17.8623 3.69797 17.8441 3.65403 17.8075 3.62023C17.771 3.58642 17.7308 3.56952 17.687 3.56952L14.0269 0.20284C13.8954 0.0676322 13.731 2.81576e-05 13.5337 2.81576e-05C13.3365 2.81576e-05 13.1648 0.0676322 13.0187 0.20284C12.8726 0.338048 12.8032 0.493538 12.8105 0.669308C12.8178 0.845079 12.8872 0.993808 13.0187 1.1155L15.4953 3.40727H4.44915C3.66013 3.40727 2.92957 3.58642 2.25745 3.94472C1.58533 4.30303 1.05201 4.79316 0.657509 5.41511C0.263004 6.03707 0.0657509 6.71987 0.0657509 7.46352V8.31533C0.0657509 8.40997 0.14246 8.51814 0.295879 8.63983C0.449298 8.76151 0.613675 8.82236 0.789011 8.82236ZM17.2267 9.22798C17.0368 9.22798 16.8688 9.29221 16.7226 9.42065C16.5765 9.5491 16.5035 9.71473 16.5035 9.91754V10.7491C16.5035 11.2493 16.3683 11.7057 16.098 12.1181C15.8277 12.5304 15.4661 12.8583 15.0131 13.1017C14.5602 13.3451 14.078 13.4668 13.5666 13.4668H2.43278L4.9094 11.175C5.0409 11.0533 5.10665 10.9012 5.10665 10.7187C5.10665 10.5361 5.0409 10.3773 4.9094 10.242C4.7779 10.1068 4.60987 10.0426 4.40531 10.0494C4.20075 10.0561 4.03272 10.1204 3.90122 10.242L0.241087 13.629C0.211864 13.656 0.182641 13.6898 0.153419 13.7304C0.124196 13.771 0.0949735 13.7913 0.0657509 13.7913C-0.021917 13.967 -0.021917 14.136 0.0657509 14.2983C0.0657509 14.3524 0.0840151 14.3963 0.120543 14.4301C0.157072 14.4639 0.197253 14.4808 0.241087 14.4808L3.90122 17.8678C4.01811 17.9759 4.16788 18.03 4.35052 18.03C4.53316 18.03 4.68293 17.9759 4.79982 17.8678C4.94593 17.7326 5.01899 17.5737 5.01899 17.3912C5.01899 17.2086 4.94593 17.0565 4.79982 16.9348L2.34512 14.6431H13.5666C14.3556 14.6431 15.0862 14.4639 15.7583 14.1056C16.4304 13.7473 16.9637 13.2572 17.3582 12.6352C17.7527 12.0133 17.95 11.3305 17.95 10.5868V9.73501C17.95 9.61332 17.8769 9.4984 17.7308 9.39023C17.5847 9.28206 17.4167 9.22798 17.2267 9.22798Z" fill="#030712"/>
</svg>
