<svg width="24" height="18" viewBox="0 0 24 18" fill="none" xmlns="http://www.w3.org/2000/svg">
<path d="M20.5182 0.844015H3.20216C2.66482 0.844015 2.16216 0.974016 1.69416 1.23402C1.22616 1.49401 0.85349 1.84935 0.576156 2.30002C0.298823 2.75068 0.160156 3.24468 0.160156 3.78202V14.598C0.160156 15.1353 0.29449 15.638 0.563156 16.106C0.831823 16.574 1.19582 16.9467 1.65516 17.224C2.11449 17.5013 2.63016 17.64 3.20216 17.64H20.5182C21.0555 17.64 21.5582 17.5057 22.0262 17.237C22.4942 16.9683 22.8668 16.6043 23.1442 16.145C23.4215 15.6857 23.5602 15.17 23.5602 14.598V3.78202C23.5602 3.24468 23.4215 2.75068 23.1442 2.30002C22.8668 1.84935 22.4942 1.49401 22.0262 1.23402C21.5582 0.974016 21.0555 0.844015 20.5182 0.844015ZM3.20216 2.48202H20.5182C20.8995 2.48202 21.2115 2.61202 21.4542 2.87201C21.6968 3.13202 21.8182 3.43535 21.8182 3.78202V6.14802H1.90216V3.78202C1.90216 3.40068 2.02349 3.08868 2.26616 2.84601C2.50882 2.60335 2.82082 2.48202 3.20216 2.48202ZM20.5182 16.002H3.20216C2.83816 16.002 2.53049 15.8677 2.27916 15.599C2.02782 15.3303 1.90216 15.0313 1.90216 14.702V7.99401H21.9482V14.598C21.8788 14.9967 21.7185 15.3303 21.4672 15.599C21.2158 15.8677 20.8995 16.002 20.5182 16.002Z" fill="#6B7280"/>
</svg>
