<svg width="19" height="19" viewBox="0 0 19 19" fill="none" xmlns="http://www.w3.org/2000/svg">
<path d="M17.3559 11.802C17.1652 11.802 16.9965 11.868 16.8499 12C16.7032 12.132 16.6299 12.308 16.6299 12.528V16.202C16.6299 16.51 16.5162 16.7703 16.2889 16.983C16.0615 17.1957 15.8085 17.302 15.5299 17.302H2.68188C2.37388 17.302 2.11355 17.1883 1.90088 16.961C1.68822 16.7337 1.58188 16.4807 1.58188 16.202V12.528C1.58188 12.3373 1.51588 12.1687 1.38388 12.022C1.25188 11.8753 1.07588 11.802 0.855883 11.802C0.635883 11.802 0.459883 11.8607 0.327883 11.978C0.195883 12.0953 0.129883 12.2493 0.129883 12.44V16.114C0.129883 16.5687 0.243549 16.9903 0.470883 17.379C0.698216 17.7677 1.00622 18.0793 1.39488 18.314C1.78355 18.5487 2.21255 18.666 2.68188 18.666H15.5299C15.9845 18.666 16.4062 18.5523 16.7949 18.325C17.1835 18.0977 17.4952 17.7897 17.7299 17.401C17.9646 17.0123 18.0819 16.5833 18.0819 16.114V12.44C18.0819 12.264 18.0085 12.1137 17.8619 11.989C17.7152 11.8643 17.5465 11.802 17.3559 11.802ZM4.99188 6.47802L8.37988 3.09002V12.44C8.37988 12.6307 8.44588 12.7993 8.57788 12.946C8.70988 13.0927 8.88955 13.166 9.11688 13.166C9.34422 13.166 9.52022 13.1037 9.64488 12.979C9.76955 12.8543 9.83188 12.6747 9.83188 12.44V3.09002L13.2419 6.47802C13.3592 6.59535 13.5059 6.65402 13.6819 6.65402C13.7699 6.65402 13.8579 6.63568 13.9459 6.59902C14.0339 6.56235 14.0999 6.52202 14.1439 6.47802C14.2905 6.34602 14.3639 6.18102 14.3639 5.98302C14.3639 5.78502 14.2905 5.61268 14.1439 5.46602L9.56788 0.890017C9.53855 0.860682 9.50188 0.831348 9.45788 0.802015C9.41388 0.772682 9.39188 0.743349 9.39188 0.714016C9.20122 0.611349 9.01788 0.611349 8.84188 0.714016C8.78322 0.714016 8.73555 0.732349 8.69888 0.769016C8.66222 0.805683 8.64388 0.846016 8.64388 0.890017L4.06788 5.46602C3.92122 5.61268 3.84788 5.78502 3.84788 5.98302C3.84788 6.18102 3.92122 6.34602 4.06788 6.47802C4.21455 6.61002 4.36855 6.67968 4.52988 6.68702C4.69122 6.69435 4.84522 6.62468 4.99188 6.47802Z" fill="#030712"/>
</svg>
