<svg width="20" height="24" viewBox="0 0 20 24" fill="none" xmlns="http://www.w3.org/2000/svg">
<path d="M18.6982 3.84402L10.0402 0.594013C9.78016 0.490015 9.59816 0.490015 9.49416 0.594013L0.810156 3.84402C0.602156 3.89602 0.441823 3.99568 0.329156 4.14301C0.21649 4.29035 0.160156 4.44201 0.160156 4.59801V12.19C0.160156 14.1313 0.836156 16.038 2.18816 17.91C3.21082 19.2793 4.55416 20.588 6.21816 21.836C7.10216 22.4947 8.06416 23.11 9.10416 23.682L9.26016 23.786C9.34682 23.8553 9.45949 23.89 9.59816 23.89C9.73682 23.89 9.84082 23.8553 9.91016 23.786L10.0402 23.708C11.0282 23.1707 11.9642 22.5727 12.8482 21.914C14.5468 20.666 15.9075 19.3487 16.9302 17.962C18.3168 16.0727 19.0102 14.1487 19.0102 12.19V4.59801C19.1142 4.44201 19.1315 4.29035 19.0622 4.14301C18.9928 3.99568 18.8715 3.89602 18.6982 3.84402ZM17.5022 12.19C17.5022 13.75 16.9388 15.31 15.8122 16.87C14.9455 18.0487 13.7928 19.184 12.3542 20.276C11.4355 20.9693 10.5168 21.5587 9.59816 22.044C8.71416 21.576 7.79549 20.9867 6.84216 20.276C5.43816 19.184 4.31149 18.0487 3.46216 16.87C2.35282 15.31 1.79816 13.75 1.79816 12.19V5.14401L9.70216 2.23201L17.5022 5.14401V12.19ZM6.99816 11.644C6.82482 11.488 6.62549 11.41 6.40016 11.41C6.17482 11.41 5.97549 11.488 5.80216 11.644C5.62882 11.8 5.54649 11.995 5.55516 12.229C5.56382 12.463 5.64616 12.6667 5.80216 12.84L7.96016 14.998C8.15082 15.154 8.33282 15.232 8.50616 15.232C8.61016 15.232 8.71416 15.206 8.81816 15.154C8.92216 15.102 9.00016 15.05 9.05216 14.998L13.3942 10.682C13.5502 10.5087 13.6282 10.305 13.6282 10.071C13.6282 9.83701 13.5502 9.64201 13.3942 9.48601C13.2382 9.33001 13.0388 9.24768 12.7962 9.23901C12.5535 9.23035 12.3542 9.31268 12.1982 9.48601L8.61016 13.152L6.99816 11.644Z" fill="#6B7280"/>
</svg>
