<svg width="19" height="18" viewBox="0 0 19 18" fill="none" xmlns="http://www.w3.org/2000/svg">
<path d="M8.77552 17.2939C8.96534 17.3669 9.14056 17.4034 9.30118 17.4034C9.4618 17.4034 9.64432 17.3596 9.84874 17.272C12.039 16.3813 13.8423 15.2423 15.2586 13.8552C16.5436 12.5849 17.4489 11.1904 17.9745 9.67184C18.4418 8.25548 18.544 6.87563 18.2812 5.53229C18.1643 4.6854 17.8614 3.91881 17.3722 3.23254C16.8831 2.54626 16.2698 2.00235 15.5324 1.60081C14.795 1.19927 13.9956 0.991194 13.1341 0.976591C11.7323 1.0204 10.4474 1.45114 9.27928 2.26883L9.30118 2.24693C8.74632 1.86729 8.15496 1.56796 7.52709 1.34893C6.87002 1.11531 6.19834 0.991194 5.51207 0.976591H5.49017C4.61407 0.976591 3.80003 1.18101 3.04805 1.58986C2.29607 1.9987 1.6755 2.54991 1.18635 3.24349C0.697194 3.93706 0.401512 4.7073 0.299301 5.55419V5.57609C0.0364722 6.93404 0.145984 8.32119 0.627837 9.73755C1.13889 11.2561 2.03689 12.6433 3.32183 13.899C4.75279 15.2862 6.57068 16.4178 8.77552 17.2939ZM2.00769 5.94843C2.06609 5.36437 2.25591 4.83141 2.57715 4.34956C2.89838 3.86771 3.31453 3.48807 3.82558 3.21064C4.33664 2.9332 4.8915 2.79449 5.49017 2.79449C6.77511 2.8821 7.89213 3.31285 8.84123 4.08673H8.81933L9.30118 4.43717L9.80494 4.06483C10.2722 3.68519 10.7832 3.39316 11.3381 3.18873C11.9076 2.95511 12.4989 2.82369 13.1122 2.79449H13.1341C13.7182 2.80909 14.2621 2.95511 14.7658 3.23254C15.2696 3.50997 15.6857 3.88596 16.0143 4.36051C16.3428 4.83506 16.5363 5.35707 16.5947 5.92653V5.94843C16.7991 7.01435 16.6896 8.12407 16.2661 9.2776C15.8135 10.5041 15.0323 11.6358 13.9226 12.6725C12.7107 13.8406 11.1702 14.8043 9.30118 15.5636C7.43218 14.8335 5.88441 13.8844 4.65788 12.7163C3.54815 11.6796 2.76697 10.5406 2.31432 9.2995C1.89087 8.14597 1.78866 7.02895 2.00769 5.94843Z" fill="#030712"/>
</svg>
